<svg xmlns="http://www.w3.org/2000/svg" viewBox="0 0 200 200">
  <rect width="200" height="200" fill="#fff"/>
  <g fill="#000">
    <rect x="20" y="20" width="50" height="50"/><rect x="30" y="30" width="30" height="30" fill="#fff"/><rect x="38" y="38" width="14" height="14" fill="#000"/>
    <rect x="130" y="20" width="50" height="50"/><rect x="140" y="30" width="30" height="30" fill="#fff"/><rect x="148" y="38" width="14" height="14" fill="#000"/>
    <rect x="20" y="130" width="50" height="50"/><rect x="30" y="140" width="30" height="30" fill="#fff"/><rect x="38" y="148" width="14" height="14" fill="#000"/>
    <rect x="90" y="20" width="12" height="12"/><rect x="90" y="44" width="12" height="12"/><rect x="110" y="32" width="12" height="12"/>
    <rect x="20" y="90" width="12" height="12"/><rect x="44" y="90" width="12" height="12"/><rect x="90" y="90" width="12" height="12"/><rect x="114" y="90" width="12" height="12"/><rect x="150" y="90" width="12" height="12"/>
    <rect x="90" y="114" width="12" height="12"/><rect x="120" y="120" width="12" height="12"/><rect x="150" y="130" width="12" height="12"/><rect x="130" y="150" width="12" height="12"/><rect x="160" y="160" width="12" height="12"/><rect x="100" y="150" width="12" height="12"/>
  </g>
</svg>
